<?xml version="1.0" encoding="UTF-8"?>
<svg version="1.1" xmlns="http://www.w3.org/2000/svg" width="256" height="255">
<path d="M0 0 C2.04434201 -0.00542609 4.08868011 -0.01255147 6.13301086 -0.02124023 C11.66400369 -0.03941848 17.19469684 -0.03242871 22.72569466 -0.01972389 C28.52526762 -0.00956774 34.32481563 -0.01899683 40.12438965 -0.02526855 C49.86210721 -0.03253733 59.59970325 -0.0229774 69.33740234 -0.00390625 C80.58124006 0.01786092 91.82478761 0.01080901 103.0686183 -0.01121187 C112.73771119 -0.02938774 122.40671694 -0.03191348 132.0758214 -0.0214572 C137.84402755 -0.01523432 143.6120975 -0.01435348 149.3802948 -0.02760315 C154.80428275 -0.0391928 160.22789806 -0.03107884 165.65184593 -0.00802612 C167.63754344 -0.00275569 169.62327252 -0.00422414 171.60895729 -0.01307678 C195.17388952 -0.1084159 195.17388952 -0.1084159 204.25004101 8.61515999 C213.0442395 19.1515751 212.69612348 29.96976053 212.59838867 42.99853516 C212.60489156 45.05302862 212.61395946 47.1075153 212.62538147 49.1619873 C212.64835476 54.71159632 212.63380789 60.26051287 212.61091208 65.81009912 C212.5919217 71.63235032 212.60316586 77.45455726 212.6098175 83.27682495 C212.61614688 93.04973279 212.59794398 102.82236488 212.56518555 112.59521484 C212.5276745 123.87892252 212.52948249 135.16210849 212.55222672 146.44584382 C212.57320335 157.3232434 212.56588731 168.20045095 212.54590797 179.07784653 C212.53794093 183.69725943 212.53989069 188.31650906 212.54993248 192.9359169 C212.56051332 198.37808459 212.54627114 203.81964682 212.51318932 209.26171875 C212.50500923 211.25385773 212.50523405 213.24605245 212.51466751 215.23818588 C212.56431437 227.01983373 212.38784403 235.94526488 204.46289062 245.33007812 C196.30207808 252.13075525 189.89178468 254.82754678 179.21160889 254.78500366 C178.3680938 254.78953478 177.52457871 254.79406589 176.65550256 254.79873431 C173.84221871 254.81134716 171.02912922 254.80975995 168.21582031 254.80810547 C166.19325004 254.81409269 164.17068206 254.82089869 162.14811707 254.82846069 C156.6624185 254.84610892 151.17678236 254.85081561 145.69105816 254.85209227 C142.26083161 254.85351518 138.83062087 254.85778747 135.40039825 254.8630867 C123.42496231 254.88158367 111.44957085 254.8897578 99.47412109 254.88818359 C88.32524625 254.88698256 77.17656512 254.9080784 66.02773929 254.93967092 C56.44448144 254.96585577 46.86128677 254.97654995 37.27799344 254.97527277 C31.55943314 254.97476376 25.841045 254.98041365 20.12252045 255.00162888 C14.74127917 255.02104814 9.36037364 255.02111036 3.97912025 255.00659561 C2.00995961 255.00451095 0.04077776 255.00918787 -1.92834663 255.02131653 C-14.81069765 255.09549196 -26.52990019 255.00518152 -36.43945312 245.58398438 C-42.56284959 238.23868567 -44.31294616 230.66145805 -44.30255127 221.35249329 C-44.30552239 220.522381 -44.30849351 219.69226871 -44.31155467 218.8370015 C-44.32023661 216.05123626 -44.3217495 213.26551403 -44.32324219 210.47973633 C-44.32787076 208.48392139 -44.33289547 206.48810733 -44.33828735 204.49229431 C-44.35141057 199.06648042 -44.3578563 193.6406789 -44.36229801 188.21485162 C-44.36522919 184.82436154 -44.36933411 181.43387484 -44.37380219 178.04338646 C-44.38747763 167.43353997 -44.39714375 156.8237012 -44.40100408 146.2138465 C-44.40548347 133.96994819 -44.4230257 121.72616159 -44.45200467 109.48229724 C-44.47363035 100.01633454 -44.48370885 90.55040324 -44.48504519 81.08441609 C-44.48609269 75.43185233 -44.49198866 69.77939358 -44.50986481 64.12685585 C-44.52636047 58.80727087 -44.52849365 53.48786966 -44.5197258 48.1682682 C-44.5189562 46.21923327 -44.52328795 44.2701884 -44.53318405 42.32117844 C-44.54593323 39.65309544 -44.54001069 36.98566039 -44.52960205 34.31758118 C-44.53765846 33.55277178 -44.54571486 32.78796238 -44.5540154 31.99997693 C-44.45812213 21.43451039 -40.27245041 13.62791916 -32.91210938 6.26757812 C-22.33238044 -0.46497665 -12.14509967 -0.05414568 0 0 Z " fill="#000001" transform="translate(44.162109375,0.482421875)"/>
<path d="M0 0 C15.84 0 31.68 0 48 0 C47.67 7.26 47.34 14.52 47 22 C42.05 22 37.1 22 32 22 C32 23.32 32 24.64 32 26 C37.61 26 43.22 26 49 26 C49.33 27.65 49.66 29.3 50 31 C52.97 31 55.94 31 59 31 C59 35.95 59 40.9 59 46 C51.41 46 43.82 46 36 46 C36 46.66 36 47.32 36 48 C43.59 48 51.18 48 59 48 C59 52.62 59 57.24 59 62 C55.04 62 51.08 62 47 62 C47 66.62 47 71.24 47 76 C47.99 76 48.98 76 50 76 C50 80.95 50 85.9 50 91 C38.615 91.495 38.615 91.495 27 92 C27 93.98 27 95.96 27 98 C36.9 98 46.8 98 57 98 C57 98.66 57 99.32 57 100 C60.63 100 64.26 100 68 100 C68 104.95 68 109.9 68 115 C65.17588235 115.94137255 63.47081968 116.11725382 60.55078125 116.09765625 C59.70322266 116.09443359 58.85566406 116.09121094 57.98242188 116.08789062 C57.10134766 116.07951172 56.22027344 116.07113281 55.3125 116.0625 C54.41982422 116.05798828 53.52714844 116.05347656 52.60742188 116.04882812 C50.40488013 116.03704983 48.20247401 116.02060164 46 116 C46 118.31 46 120.62 46 123 C50.95 123.33 55.9 123.66 61 124 C61 128.29 61 132.58 61 137 C56.38 137 51.76 137 47 137 C47 140.3 47 143.6 47 147 C35.78 147 24.56 147 13 147 C13 142.71 13 138.42 13 134 C11.68 133.67 10.36 133.34 9 133 C9 131.35 9 129.7 9 128 C14.94 128 20.88 128 27 128 C27 127.34 27 126.68 27 126 C24.36 126 21.72 126 19 126 C18.67 121.38 18.34 116.76 18 112 C16.515 111.505 16.515 111.505 15 111 C15 109.68 15 108.36 15 107 C14.34 106.67 13.68 106.34 13 106 C10.32031771 97.96095312 12.44104199 89.10101392 14 81 C14.99 81 15.98 81 17 81 C17 79.35 17 77.7 17 76 C12.73989945 79.87935074 12.73989945 79.87935074 9 91 C-3.21 91 -15.42 91 -28 91 C-27.67 92.32 -27.34 93.64 -27 95 C-16.11 95 -5.22 95 6 95 C4.875 102.875 4.875 102.875 4.02734375 106.40234375 C3.85009766 107.14677734 3.67285156 107.89121094 3.49023438 108.65820312 C3.30783203 109.41037109 3.12542969 110.16253906 2.9375 110.9375 C2.75123047 111.71673828 2.56496094 112.49597656 2.37304688 113.29882812 C1.91818991 115.19989697 1.4594938 117.10004657 1 119 C0.05898437 119.10183594 -0.88203125 119.20367187 -1.8515625 119.30859375 C-5.30164864 119.71400357 -5.30164864 119.71400357 -7.375 123.0625 C-7.91125 124.031875 -8.4475 125.00125 -9 126 C-6.69 126.33 -4.38 126.66 -2 127 C-2.875 132.875 -2.875 132.875 -4 134 C-5.85287502 134.07226502 -7.70833878 134.0838122 -9.5625 134.0625 C-10.57441406 134.05347656 -11.58632812 134.04445312 -12.62890625 134.03515625 C-13.80259766 134.01775391 -13.80259766 134.01775391 -15 134 C-15.144375 135.258125 -15.28875 136.51625 -15.4375 137.8125 C-15.73748686 140.42667123 -16.15813297 142.47439892 -17 145 C-25.91 145 -34.82 145 -44 145 C-46.25 138.25 -46.25 138.25 -46 134 C-45.01 134 -44.02 134 -43 134 C-43.33 131.36 -43.66 128.72 -44 126 C-45.485 125.505 -45.485 125.505 -47 125 C-47.33951619 123.43883181 -47.67132544 121.87598662 -48 120.3125 C-48.185625 119.44238281 -48.37125 118.57226562 -48.5625 117.67578125 C-48.98972047 115.06287036 -49.07616201 112.64186962 -49 110 C-51.64 109.67 -54.28 109.34 -57 109 C-57 111.97 -57 114.94 -57 118 C-54.69 118 -52.38 118 -50 118 C-50 122.62 -50 127.24 -50 132 C-55.94 132.33 -61.88 132.66 -68 133 C-68 137.62 -68 142.24 -68 147 C-79.22 147 -90.44 147 -102 147 C-102 142.38 -102 137.76 -102 133 C-100.02 133 -98.04 133 -96 133 C-96 131.35 -96 129.7 -96 128 C-91.71 128 -87.42 128 -83 128 C-83 127.34 -83 126.68 -83 126 C-89.93 126 -96.86 126 -104 126 C-104 120.72 -104 115.44 -104 110 C-103.01 110 -102.02 110 -101 110 C-101 109.01 -101 108.02 -101 107 C-102.32 107 -103.64 107 -105 107 C-105 101.39 -105 95.78 -105 90 C-106.32 90 -107.64 90 -109 90 C-109 85.05 -109 80.1 -109 75 C-105.535 74.505 -105.535 74.505 -102 74 C-102 69.38 -102 64.76 -102 60 C-100.02 60 -98.04 60 -96 60 C-96 59.34 -96 58.68 -96 58 C-98.64 58 -101.28 58 -104 58 C-104 50.08 -104 42.16 -104 34 C-102.68 34 -101.36 34 -100 34 C-100 29.38 -100 24.76 -100 20 C-98.35 20 -96.7 20 -95 20 C-95 18.02 -95 16.04 -95 14 C-98.96 14 -102.92 14 -107 14 C-107 12.68 -107 11.36 -107 10 C-101.17928378 9.97535362 -95.35859766 9.9571657 -89.5378418 9.94506836 C-87.55606559 9.94002733 -85.57429311 9.93319462 -83.5925293 9.92456055 C-80.75047891 9.91248485 -77.90847753 9.90676955 -75.06640625 9.90234375 C-74.17474258 9.89718246 -73.28307892 9.89202118 -72.36439514 9.88670349 C-70.24259399 9.88650823 -68.1208922 9.9378997 -66 10 C-65.505 10.495 -65.505 10.495 -65 11 C-62.78312006 11.15873955 -60.56144702 11.25133837 -58.33984375 11.31640625 C-57.67537735 11.33718735 -57.01091095 11.35796844 -56.3263092 11.37937927 C-54.19681457 11.44493658 -52.06719332 11.50378785 -49.9375 11.5625 C-48.49673153 11.60567939 -47.05597601 11.64929349 -45.61523438 11.69335938 C-42.0769596 11.80062393 -38.53854131 11.90187371 -35 12 C-34.5196682 13.58298026 -34.04078388 15.16639978 -33.5625 16.75 C-33.29566406 17.63171875 -33.02882813 18.5134375 -32.75390625 19.421875 C-32.11531506 21.60565835 -31.53224167 23.78835498 -31 26 C-29.68 26 -28.36 26 -27 26 C-26.505 28.97 -26.505 28.97 -26 32 C-27.98 32 -29.96 32 -32 32 C-32 32.66 -32 33.32 -32 34 C-30.60974609 33.98259766 -30.60974609 33.98259766 -29.19140625 33.96484375 C-27.99386719 33.95582031 -26.79632813 33.94679687 -25.5625 33.9375 C-24.36753906 33.92589844 -23.17257813 33.91429687 -21.94140625 33.90234375 C-19 34 -19 34 -18 35 C-16.14712498 35.07226502 -14.29166122 35.0838122 -12.4375 35.0625 C-10.91962891 35.04896484 -10.91962891 35.04896484 -9.37109375 35.03515625 C-8.58863281 35.02355469 -7.80617188 35.01195312 -7 35 C-6.86722656 34.22914062 -6.73445313 33.45828125 -6.59765625 32.6640625 C-6.42105469 31.66117188 -6.24445313 30.65828125 -6.0625 29.625 C-5.88847656 28.62726563 -5.71445313 27.62953125 -5.53515625 26.6015625 C-5 24 -5 24 -4 22 C-5.32 22 -6.64 22 -8 22 C-7.52200759 17.33957398 -6.09343813 13.63282247 -4.1328125 9.44140625 C-2.68684199 6.3250905 -1.35328649 3.15766848 0 0 Z " fill="#F6FBF4" transform="translate(145,61)"/>
<path d="M0 0 C5.82071622 -0.02464638 11.64140234 -0.0428343 17.4621582 -0.05493164 C19.44393441 -0.05997267 21.42570689 -0.06680538 23.4074707 -0.07543945 C26.24952109 -0.08751515 29.09152247 -0.09323045 31.93359375 -0.09765625 C32.82525742 -0.10281754 33.71692108 -0.10797882 34.63560486 -0.11329651 C36.75740601 -0.11349177 38.8791078 -0.0621003 41 0 C41.495 0.495 41.495 0.495 42 1 C44.21687994 1.15873955 46.43855298 1.25133837 48.66015625 1.31640625 C49.65685585 1.3475779 49.65685585 1.3475779 50.6736908 1.37937927 C52.80318543 1.44493658 54.93280668 1.50378785 57.0625 1.5625 C58.50326847 1.60567939 59.94402399 1.64929349 61.38476562 1.69335938 C64.9230404 1.80062393 68.46145869 1.90187371 72 2 C72.4803318 3.58298026 72.95921612 5.16639978 73.4375 6.75 C73.70433594 7.63171875 73.97117187 8.5134375 74.24609375 9.421875 C74.88468494 11.60565835 75.46775833 13.78835498 76 16 C77.32 16 78.64 16 80 16 C80.495 18.97 80.495 18.97 81 22 C79.02 22 77.04 22 75 22 C75 22.66 75 23.32 75 24 C79.29 24 83.58 24 88 24 C88 26.64 88 29.28 88 32 C93.61 32 99.22 32 105 32 C105 32.33 105 32.66 105 33 C100.71 33 96.42 33 92 33 C91.67 35.31 91.34 37.62 91 40 C91.66 40 92.32 40 93 40 C93.12375 40.804375 93.2475 41.60875 93.375 42.4375 C93.684375 43.7059375 93.684375 43.7059375 94 45 C94.66 45.33 95.32 45.66 96 46 C96.33 44.02 96.66 42.04 97 40 C98.98 40 100.96 40 103 40 C102.34 43.63 101.68 47.26 101 51 C108.26 50.67 115.52 50.34 123 50 C123.33 49.01 123.66 48.02 124 47 C127.3 47 130.6 47 134 47 C134 47.66 134 48.32 134 49 C133.01 49 132.02 49 131 49 C131 49.99 131 50.98 131 52 C128.03 52 125.06 52 122 52 C122 52.66 122 53.32 122 54 C104.51 54 87.02 54 69 54 C69 53.01 69 52.02 69 51 C75.93 51 82.86 51 90 51 C89.01 47.7 88.02 44.4 87 41 C87 39.68 87 38.36 87 37 C78.42 37 69.84 37 61 37 C61.99 40.3721875 61.99 40.3721875 63 43.8125 C65 50.625 65 50.625 65 54 C61.52674819 55.1577506 58.63932552 55.06866652 55 55 C55.01160156 56.00160156 55.02320313 57.00320312 55.03515625 58.03515625 C55.04454398 59.37760228 55.05364312 60.72005036 55.0625 62.0625 C55.07410156 63.37347656 55.08570313 64.68445313 55.09765625 66.03515625 C55.00452335 69.8163519 54.61448726 73.27920707 54 77 C54.99 77 55.98 77 57 77 C57 81.29 57 85.58 57 90 C52.71 90 48.42 90 44 90 C44 90.99 44 91.98 44 93 C50.27 93 56.54 93 63 93 C63 94.98 63 96.96 63 99 C58.71 99 54.42 99 50 99 C50 101.97 50 104.94 50 108 C52.31 108 54.62 108 57 108 C57 112.62 57 117.24 57 122 C51.06 122.33 45.12 122.66 39 123 C39 127.62 39 132.24 39 137 C27.78 137 16.56 137 5 137 C5 132.38 5 127.76 5 123 C6.98 123 8.96 123 11 123 C11 121.35 11 119.7 11 118 C15.29 118 19.58 118 24 118 C24 117.34 24 116.68 24 116 C17.07 116 10.14 116 3 116 C3 110.72 3 105.44 3 100 C3.99 100 4.98 100 6 100 C6 99.01 6 98.02 6 97 C4.68 97 3.36 97 2 97 C2 91.39 2 85.78 2 80 C0.68 80 -0.64 80 -2 80 C-2 75.05 -2 70.1 -2 65 C1.465 64.505 1.465 64.505 5 64 C5 59.38 5 54.76 5 50 C6.98 50 8.96 50 11 50 C11 49.34 11 48.68 11 48 C8.36 48 5.72 48 3 48 C3 40.08 3 32.16 3 24 C4.32 24 5.64 24 7 24 C7 19.38 7 14.76 7 10 C8.65 10 10.3 10 12 10 C12 8.02 12 6.04 12 4 C8.04 4 4.08 4 0 4 C0 2.68 0 1.36 0 0 Z " fill="#F7F5F8" transform="translate(38,71)"/>
<path d="M0 0 C5.82071622 -0.02464638 11.64140234 -0.0428343 17.4621582 -0.05493164 C19.44393441 -0.05997267 21.42570689 -0.06680538 23.4074707 -0.07543945 C26.24952109 -0.08751515 29.09152247 -0.09323045 31.93359375 -0.09765625 C32.82525742 -0.10281754 33.71692108 -0.10797882 34.63560486 -0.11329651 C36.75740601 -0.11349177 38.8791078 -0.0621003 41 0 C41.495 0.495 41.495 0.495 42 1 C44.21687994 1.15873955 46.43855298 1.25133837 48.66015625 1.31640625 C49.65685585 1.3475779 49.65685585 1.3475779 50.6736908 1.37937927 C52.80318543 1.44493658 54.93280668 1.50378785 57.0625 1.5625 C58.50326847 1.60567939 59.94402399 1.64929349 61.38476562 1.69335938 C64.9230404 1.80062393 68.46145869 1.90187371 72 2 C72.4803318 3.58298026 72.95921612 5.16639978 73.4375 6.75 C73.70433594 7.63171875 73.97117187 8.5134375 74.24609375 9.421875 C74.88468494 11.60565835 75.46775833 13.78835498 76 16 C77.32 16 78.64 16 80 16 C80.495 18.97 80.495 18.97 81 22 C79.02 22 77.04 22 75 22 C75.2165625 22.61488281 75.433125 23.22976562 75.65625 23.86328125 C75.9346875 24.67152344 76.213125 25.47976562 76.5 26.3125 C76.7784375 27.11300781 77.056875 27.91351563 77.34375 28.73828125 C78 31 78 31 78 34 C58.99544419 34.18451025 58.99544419 34.18451025 51 33 C50.505 28.545 50.505 28.545 50 24 C49.34 24 48.68 24 48 24 C47.67 26.97 47.34 29.94 47 33 C39.74 33 32.48 33 25 33 C25 34.98 25 36.96 25 39 C35.89 39 46.78 39 58 39 C58 43.95 58 48.9 58 54 C50.41 54 42.82 54 35 54 C35 56.97 35 59.94 35 63 C25.43 63 15.86 63 6 63 C6 59.04 6 55.08 6 51 C7.65 51 9.3 51 11 51 C11 50.01 11 49.02 11 48 C8.36 48 5.72 48 3 48 C3 40.08 3 32.16 3 24 C4.32 24 5.64 24 7 24 C7 19.38 7 14.76 7 10 C8.65 10 10.3 10 12 10 C12 8.02 12 6.04 12 4 C8.04 4 4.08 4 0 4 C0 2.68 0 1.36 0 0 Z " fill="#EDF7EA" transform="translate(38,71)"/>
<path d="M0 0 C8.58 0 17.16 0 26 0 C29 11 29 11 29 14 C22.07 14 15.14 14 8 14 C8 14.99 8 15.98 8 17 C18.23 17 28.46 17 39 17 C39 17.66 39 18.32 39 19 C20.685 18.505 20.685 18.505 2 18 C4.475 30.375 4.475 30.375 7 43 C10.63 43.33 14.26 43.66 18 44 C18.495 45.98 18.495 45.98 19 48 C29.89 48 40.78 48 52 48 C50.875 55.875 50.875 55.875 50.02734375 59.40234375 C49.85009766 60.14677734 49.67285156 60.89121094 49.49023438 61.65820312 C49.30783203 62.41037109 49.12542969 63.16253906 48.9375 63.9375 C48.75123047 64.71673828 48.56496094 65.49597656 48.37304688 66.29882812 C47.91818991 68.19989697 47.4594938 70.10004657 47 72 C45.58847656 72.15275391 45.58847656 72.15275391 44.1484375 72.30859375 C40.69835136 72.71400357 40.69835136 72.71400357 38.625 76.0625 C38.08875 77.031875 37.5525 78.00125 37 79 C39.31 79.33 41.62 79.66 44 80 C43.125 85.875 43.125 85.875 42 87 C40.14712498 87.07226502 38.29166122 87.0838122 36.4375 87.0625 C35.42558594 87.05347656 34.41367188 87.04445313 33.37109375 87.03515625 C32.58863281 87.02355469 31.80617187 87.01195312 31 87 C30.855625 88.258125 30.71125 89.51625 30.5625 90.8125 C30.26251314 93.42667123 29.84186703 95.47439892 29 98 C20.09 98 11.18 98 2 98 C-0.25 91.25 -0.25 91.25 0 87 C0.99 87 1.98 87 3 87 C2.67 84.36 2.34 81.72 2 79 C0.515 78.505 0.515 78.505 -1 78 C-1.33951619 76.43883181 -1.67132544 74.87598662 -2 73.3125 C-2.185625 72.44238281 -2.37125 71.57226562 -2.5625 70.67578125 C-2.98972047 68.06287036 -3.07616201 65.64186962 -3 63 C-1.35 63 0.3 63 2 63 C2 60.69 2 58.38 2 56 C-4.27 56 -10.54 56 -17 56 C-17 55.01 -17 54.02 -17 53 C-12.71 53 -8.42 53 -4 53 C-4 48.71 -4 44.42 -4 40 C-4.99 40 -5.98 40 -7 40 C-6.67 32.74 -6.34 25.48 -6 18 C-2.7 17.67 0.6 17.34 4 17 C3.566875 15.53626953 3.566875 15.53626953 3.125 14.04296875 C2.74978981 12.75787385 2.37480138 11.47271419 2 10.1875 C1.443125 8.29064453 1.443125 8.29064453 0.875 6.35546875 C0 3 0 3 0 0 Z " fill="#F9F3FB" transform="translate(99,108)"/>
<path d="M0 0 C15.84 0 31.68 0 48 0 C47.67 7.26 47.34 14.52 47 22 C42.05 22 37.1 22 32 22 C32 23.32 32 24.64 32 26 C37.61 26 43.22 26 49 26 C49.495 28.475 49.495 28.475 50 31 C52.97 31 55.94 31 59 31 C59 35.62 59 40.24 59 45 C48.77 45 38.54 45 28 45 C28 40.71 28 36.42 28 32 C27.34 32 26.68 32 26 32 C25.80083984 33.03060547 25.80083984 33.03060547 25.59765625 34.08203125 C25.42105469 34.98308594 25.24445313 35.88414063 25.0625 36.8125 C24.88847656 37.70582031 24.71445313 38.59914062 24.53515625 39.51953125 C24 42 24 42 23 45 C15.74 45 8.48 45 1 45 C1 45.99 1 46.98 1 48 C-0.65 48 -2.3 48 -4 48 C-4 48.66 -4 49.32 -4 50 C-5.98 50 -7.96 50 -10 50 C-10.33 51.98 -10.66 53.96 -11 56 C-11.99 55.67 -12.98 55.34 -14 55 C-14 53.35 -14 51.7 -14 50 C-14.66 50 -15.32 50 -16 50 C-15.67 47.69 -15.34 45.38 -15 43 C-16.32 42.67 -17.64 42.34 -19 42 C-18.67 39.69 -18.34 37.38 -18 35 C-14.37 35 -10.74 35 -7 35 C-6.690625 33.22625 -6.38125 31.4525 -6.0625 29.625 C-5.125 24.25 -5.125 24.25 -4 22 C-5.32 22 -6.64 22 -8 22 C-7.52200759 17.33957398 -6.09343813 13.63282247 -4.1328125 9.44140625 C-2.68684199 6.3250905 -1.35328649 3.15766848 0 0 Z " fill="#FBFCFA" transform="translate(145,61)"/>
<path d="M0 0 C1.32 0 2.64 0 4 0 C4 3.3 4 6.6 4 10 C5.299375 9.979375 6.59875 9.95875 7.9375 9.9375 C9.29165633 9.91600546 10.64756083 9.92851801 12 10 C13 11 13 11 13 17 C22.9 17 32.8 17 43 17 C43 17.66 43 18.32 43 19 C46.63 19 50.26 19 54 19 C54 23.95 54 28.9 54 34 C51.17588235 34.94137255 49.47081968 35.11725382 46.55078125 35.09765625 C45.70322266 35.09443359 44.85566406 35.09121094 43.98242188 35.08789062 C43.10134766 35.07951172 42.22027344 35.07113281 41.3125 35.0625 C40.41982422 35.05798828 39.52714844 35.05347656 38.60742188 35.04882812 C36.40488013 35.03704983 34.20247401 35.02060164 32 35 C32 37.31 32 39.62 32 42 C36.95 42.33 41.9 42.66 47 43 C47 47.29 47 51.58 47 56 C42.38 56 37.76 56 33 56 C33 59.3 33 62.6 33 66 C21.78 66 10.56 66 -1 66 C-1 61.71 -1 57.42 -1 53 C-2.32 52.67 -3.64 52.34 -5 52 C-5 50.35 -5 48.7 -5 47 C0.94 47 6.88 47 13 47 C13 46.34 13 45.68 13 45 C10.36 45 7.72 45 5 45 C4.67 40.38 4.34 35.76 4 31 C3.01 30.67 2.02 30.34 1 30 C1 28.68 1 27.36 1 26 C0.34 25.67 -0.32 25.34 -1 25 C-3.67968229 16.96095312 -1.55895801 8.10101392 0 0 Z " fill="#A60BF0" transform="translate(159,142)"/>
<path d="M0 0 C8.58 0 17.16 0 26 0 C26 5.61 26 11.22 26 17 C21.05 17 16.1 17 11 17 C11 18.65 11 20.3 11 22 C16.28 22 21.56 22 27 22 C27 22.33 27 22.66 27 23 C23.04 23 19.08 23 15 23 C15.020625 24.381875 15.04125 25.76375 15.0625 27.1875 C15.06787143 30.59298534 14.85570545 33.68414137 14 37 C15.65 37 17.3 37 19 37 C19 37.66 19 38.32 19 39 C27.58 39 36.16 39 45 39 C45 40.32 45 41.64 45 43 C49.62 43 54.24 43 59 43 C59 47.62 59 52.24 59 57 C53.06 57.33 47.12 57.66 41 58 C41 62.62 41 67.24 41 72 C29.78 72 18.56 72 7 72 C7 67.38 7 62.76 7 58 C8.98 58 10.96 58 13 58 C13 56.35 13 54.7 13 53 C17.29 53 21.58 53 26 53 C26 52.34 26 51.68 26 51 C19.07 51 12.14 51 5 51 C5 45.72 5 40.44 5 35 C5.99 35 6.98 35 8 35 C8 34.01 8 33.02 8 32 C6.68 32 5.36 32 4 32 C4 26.39 4 20.78 4 15 C2.68 15 1.36 15 0 15 C0 10.05 0 5.1 0 0 Z " fill="#F4F5F4" transform="translate(36,136)"/>
<path d="M0 0 C15.18 0 30.36 0 46 0 C46 0.99 46 1.98 46 3 C50.95 3 55.9 3 61 3 C61 5.31 61 7.62 61 10 C62.32 10.33 63.64 10.66 65 11 C65 15.95 65 20.9 65 26 C62.03 26 59.06 26 56 26 C55.67 32.93 55.34 39.86 55 47 C57.64 47.33 60.28 47.66 63 48 C63 52.95 63 57.9 63 63 C63.66 63 64.32 63 65 63 C65 67.95 65 72.9 65 78 C56.42 78 47.84 78 39 78 C39 77.34 39 76.68 39 76 C42.96 76 46.92 76 51 76 C51 71.38 51 66.76 51 62 C43.41 62 35.82 62 28 62 C28 61.34 28 60.68 28 60 C35.59 60 43.18 60 51 60 C51 55.05 51 50.1 51 45 C48.03 45 45.06 45 42 45 C41.505 43.02 41.505 43.02 41 41 C35.39 40.67 29.78 40.34 24 40 C24 38.68 24 37.36 24 36 C28.95 36 33.9 36 39 36 C38.98839844 34.91460937 38.97679687 33.82921875 38.96484375 32.7109375 C38.95545862 31.26562673 38.94635919 29.82031409 38.9375 28.375 C38.92912109 27.66214844 38.92074219 26.94929688 38.91210938 26.21484375 C38.90888672 25.51230469 38.90566406 24.80976562 38.90234375 24.0859375 C38.89710693 23.4470459 38.89187012 22.8081543 38.88647461 22.14990234 C39.03105756 19.41184324 39.54923873 16.70456765 40 14 C24.16 14 8.32 14 -8 14 C-8 13.67 -8 13.34 -8 13 C-6.35 12.67 -4.7 12.34 -3 12 C-3 10.68 -3 9.36 -3 8 C1.95 8 6.9 8 12 8 C12.33 6.35 12.66 4.7 13 3 C8.38 3 3.76 3 -1 3 C-0.67 2.01 -0.34 1.02 0 0 Z " fill="#33DF10" transform="translate(153,47)"/>
<path d="M0 0 C13.53 0 27.06 0 41 0 C41 0.33 41 0.66 41 1 C34.73 1 28.46 1 22 1 C22 5.95 22 10.9 22 16 C24.97 16 27.94 16 31 16 C30.34 16.33 29.68 16.66 29 17 C29 17.99 29 18.98 29 20 C25.37 20 21.74 20 18 20 C18 24.29 18 28.58 18 33 C19.98 33 21.96 33 24 33 C24 34.98 24 36.96 24 39 C35.22 39 46.44 39 58 39 C58 43.95 58 48.9 58 54 C50.41 54 42.82 54 35 54 C35 56.97 35 59.94 35 63 C25.43 63 15.86 63 6 63 C6 59.04 6 55.08 6 51 C7.65 51 9.3 51 11 51 C11 50.01 11 49.02 11 48 C8.36 48 5.72 48 3 48 C3 40.08 3 32.16 3 24 C4.32 24 5.64 24 7 24 C7 19.38 7 14.76 7 10 C8.65 10 10.3 10 12 10 C12 8.02 12 6.04 12 4 C8.04 4 4.08 4 0 4 C0 2.68 0 1.36 0 0 Z " fill="#A005EC" transform="translate(38,71)"/>
<path d="M0 0 C15.51 0 31.02 0 47 0 C47.495 1.485 47.495 1.485 48 3 C46.35 3 44.7 3 43 3 C43.185625 3.804375 43.37125 4.60875 43.5625 5.4375 C43.706875 6.283125 43.85125 7.12875 44 8 C43.67 8.33 43.34 8.66 43 9 C48.61 9.33 54.22 9.66 60 10 C63.09375 19.66796875 63.09375 19.66796875 63 25 C44.98559993 25.9575084 27.03291283 26.12059047 9 26 C9 23.36 9 20.72 9 18 C-0.24 18 -9.48 18 -19 18 C-19 16.35 -19 14.7 -19 13 C-14.545 12.505 -14.545 12.505 -10 12 C-10 11.01 -10 10.02 -10 9 C-9.34 9 -8.68 9 -8 9 C-8 6.69 -8 4.38 -8 2 C-5.36 2 -2.72 2 0 2 C0 1.34 0 0.68 0 0 Z " fill="#34E90F" transform="translate(71,47)"/>
<path d="M0 0 C0.66 0 1.32 0 2 0 C2.495 4.455 2.495 4.455 3 9 C16.365 9.495 16.365 9.495 30 10 C29.01 7.03 29.01 7.03 28 4 C28 2.68 28 1.36 28 0 C31.96 0 35.92 0 40 0 C40 2.64 40 5.28 40 8 C45.61 8 51.22 8 57 8 C57 8.33 57 8.66 57 9 C52.71 9 48.42 9 44 9 C43.67 11.31 43.34 13.62 43 16 C43.66 16 44.32 16 45 16 C45.12375 16.804375 45.2475 17.60875 45.375 18.4375 C45.684375 19.7059375 45.684375 19.7059375 46 21 C46.66 21.33 47.32 21.66 48 22 C48.33 20.02 48.66 18.04 49 16 C50.98 16 52.96 16 55 16 C54.34 19.63 53.68 23.26 53 27 C60.26 26.67 67.52 26.34 75 26 C75.495 24.515 75.495 24.515 76 23 C79.3 23 82.6 23 86 23 C86 23.66 86 24.32 86 25 C85.01 25 84.02 25 83 25 C83 25.99 83 26.98 83 28 C80.03 28 77.06 28 74 28 C74 28.66 74 29.32 74 30 C56.51 30 39.02 30 21 30 C21 29.01 21 28.02 21 27 C27.93 27 34.86 27 42 27 C41.01 23.7 40.02 20.4 39 17 C39 15.68 39 14.36 39 13 C30.42 13 21.84 13 13 13 C13.66 15.248125 14.32 17.49625 15 19.8125 C17 26.625 17 26.625 17 30 C14 31 14 31 7 31 C7 35.95 7 40.9 7 46 C-3.23 46 -13.46 46 -24 46 C-24 44.02 -24 42.04 -24 40 C-30.27 40 -36.54 40 -43 40 C-43 35.38 -43 30.76 -43 26 C-41.02 26 -39.04 26 -37 26 C-37 26.33 -37 26.66 -37 27 C-38.65 27 -40.3 27 -42 27 C-42 30.96 -42 34.92 -42 39 C-32.43 39 -22.86 39 -13 39 C-13 36.03 -13 33.06 -13 30 C-5.41 30 2.18 30 10 30 C10 25.05 10 20.1 10 15 C-0.89 15 -11.78 15 -23 15 C-23 13.02 -23 11.04 -23 9 C-15.74 9 -8.48 9 -1 9 C-0.67 6.03 -0.34 3.06 0 0 Z " fill="#46F11B" transform="translate(86,95)"/>
<path d="M0 0 C18.15 0 36.3 0 55 0 C53.875 7.875 53.875 7.875 53.02734375 11.40234375 C52.76147461 12.51899414 52.76147461 12.51899414 52.49023438 13.65820312 C52.30783203 14.41037109 52.12542969 15.16253906 51.9375 15.9375 C51.75123047 16.71673828 51.56496094 17.49597656 51.37304688 18.29882812 C50.91818991 20.19989697 50.4594938 22.10004657 50 24 C45.63106263 24.84062776 41.5164802 25.11732956 37.0703125 25.09765625 C35.78125 25.09443359 34.4921875 25.09121094 33.1640625 25.08789062 C31.81770764 25.07953733 30.47135348 25.07107241 29.125 25.0625 C27.75520996 25.0574783 26.38541815 25.05291657 25.015625 25.04882812 C21.6770381 25.03707254 18.33854185 25.02063964 15 25 C14.49590983 23.74355054 14.00012738 22.48376616 13.5078125 21.22265625 C13.2308252 20.52148682 12.95383789 19.82031738 12.66845703 19.09790039 C11.69368344 16.03864929 11.88407445 13.18795271 12 10 C11.70307988 7.66175408 11.37979153 5.32622311 11 3 C7.37 3 3.74 3 0 3 C0 2.01 0 1.02 0 0 Z " fill="#FBFCFB" transform="translate(96,156)"/>
<path d="M0 0 C8.58 0 17.16 0 26 0 C26 5.61 26 11.22 26 17 C21.05 17 16.1 17 11 17 C11 18.65 11 20.3 11 22 C16.28 22 21.56 22 27 22 C27 22.33 27 22.66 27 23 C23.04 23 19.08 23 15 23 C15.020625 24.381875 15.04125 25.76375 15.0625 27.1875 C15.06787143 30.59298534 14.85570545 33.68414137 14 37 C15.65 37 17.3 37 19 37 C19 37.66 19 38.32 19 39 C18.01 39 17.02 39 16 39 C16 40.65 16 42.3 16 44 C16.99 44 17.98 44 19 44 C19 45.32 19 46.64 19 48 C21.31 48 23.62 48 26 48 C26 48.99 26 49.98 26 51 C19.07 51 12.14 51 5 51 C5 45.72 5 40.44 5 35 C5.99 35 6.98 35 8 35 C8 34.01 8 33.02 8 32 C6.68 32 5.36 32 4 32 C4 26.39 4 20.78 4 15 C2.68 15 1.36 15 0 15 C0 10.05 0 5.1 0 0 Z " fill="#A001F2" transform="translate(36,136)"/>
<path d="M0 0 C8.58 0 17.16 0 26 0 C29 11 29 11 29 14 C22.07 14 15.14 14 8 14 C8 14.99 8 15.98 8 17 C18.23 17 28.46 17 39 17 C39 17.66 39 18.32 39 19 C20.685 18.505 20.685 18.505 2 18 C4.475 30.375 4.475 30.375 7 43 C10.63 43.33 14.26 43.66 18 44 C18.495 45.98 18.495 45.98 19 48 C11.74 48 4.48 48 -3 48 C-3 49.98 -3 51.96 -3 54 C-7.62 54 -12.24 54 -17 54 C-17 53.67 -17 53.34 -17 53 C-12.71 53 -8.42 53 -4 53 C-4 48.71 -4 44.42 -4 40 C-4.99 40 -5.98 40 -7 40 C-6.67 32.74 -6.34 25.48 -6 18 C-2.7 17.67 0.6 17.34 4 17 C3.566875 15.53626953 3.566875 15.53626953 3.125 14.04296875 C2.74978981 12.75787385 2.37480138 11.47271419 2 10.1875 C1.443125 8.29064453 1.443125 8.29064453 0.875 6.35546875 C0 3 0 3 0 0 Z " fill="#4B804A" transform="translate(99,108)"/>
<path d="M0 0 C9.57 0 19.14 0 29 0 C29 4.95 29 9.9 29 15 C21.41 15 13.82 15 6 15 C6 17.97 6 20.94 6 24 C-3.57 24 -13.14 24 -23 24 C-23 20.04 -23 16.08 -23 12 C-19.50421427 11.30084285 -17.00593207 10.87765516 -13.57421875 10.90234375 C-12.38022461 10.90717773 -12.38022461 10.90717773 -11.16210938 10.91210938 C-10.34548828 10.92048828 -9.52886719 10.92886719 -8.6875 10.9375 C-7.85154297 10.94201172 -7.01558594 10.94652344 -6.15429688 10.95117188 C-4.10283351 10.96289452 -2.05140727 10.98082797 0 11 C0 7.37 0 3.74 0 0 Z " fill="#FCFBFB" transform="translate(67,110)"/>
<path d="M0 0 C16.17 0 32.34 0 49 0 C49 4.62 49 9.24 49 14 C31.51 14 14.02 14 -4 14 C-2 4 -2 4 0 0 Z " fill="#FCFDFB" transform="translate(142,68)"/>
<path d="M0 0 C16.68602042 -0.17667551 33.32892077 0.37191124 50 1 C50.50512244 2.60256108 51.00391627 4.20711792 51.5 5.8125 C51.7784375 6.70582031 52.056875 7.59914063 52.34375 8.51953125 C53 11 53 11 53 14 C35.51 14.33 18.02 14.66 0 15 C0 10.05 0 5.1 0 0 Z " fill="#FBF8FC" transform="translate(60,72)"/>
<path d="M0 0 C4.95 0 9.9 0 15 0 C15 4.62 15 9.24 15 14 C17.97 14.33 20.94 14.66 24 15 C24 19.95 24 24.9 24 30 C24.66 30 25.32 30 26 30 C26 34.95 26 39.9 26 45 C17.42 45 8.84 45 0 45 C0 44.34 0 43.68 0 43 C3.96 43 7.92 43 12 43 C12 38.38 12 33.76 12 29 C4.41 29 -3.18 29 -11 29 C-11 28.34 -11 27.68 -11 27 C-3.41 27 4.18 27 12 27 C12 22.05 12 17.1 12 12 C9.03 12 6.06 12 3 12 C2.67 10.68 2.34 9.36 2 8 C-3.61 7.67 -9.22 7.34 -15 7 C-15 5.68 -15 4.36 -15 3 C-10.05 3 -5.1 3 0 3 C0 2.01 0 1.02 0 0 Z " fill="#33EB0B" transform="translate(192,80)"/>
<path d="M0 0 C11.22 0 22.44 0 34 0 C34 0.66 34 1.32 34 2 C37.63 2 41.26 2 45 2 C45 6.95 45 11.9 45 17 C41.52217417 18.15927528 38.81196743 18.11313066 35.14453125 18.09765625 C34.48289474 18.0962413 33.82125824 18.09482635 33.13957214 18.09336853 C31.03050172 18.08777996 28.92153823 18.07522965 26.8125 18.0625 C25.38086091 18.05748352 23.94922015 18.05292087 22.51757812 18.04882812 C19.01168412 18.0378143 15.5058525 18.02055755 12 18 C11.16898363 13.19793311 10.91620159 8.86030792 11 4 C7.37 4 3.74 4 0 4 C0 2.68 0 1.36 0 0 Z " fill="#F8FAF8" transform="translate(168,159)"/>
<path d="M0 0 C0 3.37465686 -0.81493079 5.53965992 -2 8.6875 C-2.556875 10.17830078 -2.556875 10.17830078 -3.125 11.69921875 C-3.558125 12.83810547 -3.558125 12.83810547 -4 14 C-2.68 14 -1.36 14 0 14 C-0.99 18.29 -1.98 22.58 -3 27 C-6.63 27 -10.26 27 -14 27 C-14.33 28.32 -14.66 29.64 -15 31 C-15 29.35 -15 27.7 -15 26 C-19.29 26 -23.58 26 -28 26 C-28 25.34 -28 24.68 -28 24 C-26.02 24 -24.04 24 -22 24 C-22.33 22.02 -22.66 20.04 -23 18 C-24.32 18 -25.64 18 -27 18 C-27.68095109 16.63201789 -28.34408239 15.25515997 -29 13.875 C-29.37125 13.10929687 -29.7425 12.34359375 -30.125 11.5546875 C-31.14307513 8.58227173 -31.14472534 6.12064006 -31 3 C-30.30962646 2.98018066 -29.61925293 2.96036133 -28.90795898 2.93994141 C-25.75078529 2.84411707 -22.59422178 2.73467186 -19.4375 2.625 C-18.35146484 2.5940625 -17.26542969 2.563125 -16.14648438 2.53125 C-10.43129863 2.32279338 -5.40491634 1.90761753 0 0 Z " fill="#0B140B" transform="translate(141,69)"/>
<path d="M0 0 C0.85049423 0.00222061 1.70098846 0.00444122 2.57725525 0.00672913 C4.01863609 0.00684242 4.01863609 0.00684242 5.48913574 0.00695801 C7.05630592 0.01469994 7.05630592 0.01469994 8.65513611 0.02259827 C9.71913132 0.02401321 10.78312653 0.02542816 11.87936401 0.02688599 C15.29293069 0.03250388 18.70643286 0.04505941 22.11997986 0.05775452 C24.42792162 0.06276721 26.73586441 0.06733052 29.04380798 0.07142639 C34.71507707 0.08163019 40.38620586 0.10120208 46.05747986 0.12025452 C45.72747986 7.38025452 45.39747986 14.64025452 45.05747986 22.12025452 C40.10747986 22.12025452 35.15747986 22.12025452 30.05747986 22.12025452 C30.05747986 23.44025452 30.05747986 24.76025452 30.05747986 26.12025452 C35.66747986 26.12025452 41.27747986 26.12025452 47.05747986 26.12025452 C47.55247986 28.59525452 47.55247986 28.59525452 48.05747986 31.12025452 C51.02747986 31.12025452 53.99747986 31.12025452 57.05747986 31.12025452 C57.05747986 31.45025452 57.05747986 31.78025452 57.05747986 32.12025452 C53.75747986 32.12025452 50.45747986 32.12025452 47.05747986 32.12025452 C47.05747986 30.80025452 47.05747986 29.48025452 47.05747986 28.12025452 C45.59568298 28.13765686 45.59568298 28.13765686 44.10435486 28.15541077 C29.74084363 28.26608555 15.40741937 27.69682828 1.05747986 27.12025452 C1.05747986 25.47025452 1.05747986 23.82025452 1.05747986 22.12025452 C-2.57252014 22.12025452 -6.20252014 22.12025452 -9.94252014 22.12025452 C-9.61252014 20.14025452 -9.28252014 18.16025452 -8.94252014 16.12025452 C-8.61252014 17.44025452 -8.28252014 18.76025452 -7.94252014 20.12025452 C9.21747986 20.45025452 26.37747986 20.78025452 44.05747986 21.12025452 C44.05747986 16.50025452 44.05747986 11.88025452 44.05747986 7.12025452 C28.21747986 7.12025452 12.37747986 7.12025452 -3.94252014 7.12025452 C-2.78454123 0.17238105 -2.78454123 0.17238105 0 0 Z " fill="#9ADA8A" transform="translate(146.94252014160156,60.87974548339844)"/>
<path d="M0 0 C5.28 0 10.56 0 16 0 C16 5.28 16 10.56 16 16 C15.01 16 14.02 16 13 16 C12.67 22.27 12.34 28.54 12 35 C11.34 35 10.68 35 10 35 C10 34.34 10 33.68 10 33 C0.1 33 -9.8 33 -20 33 C-20.33 30.69 -20.66 28.38 -21 26 C-13.08 26 -5.16 26 3 26 C3 21.05 3 16.1 3 11 C2.01 11 1.02 11 0 11 C0 7.37 0 3.74 0 0 Z " fill="#3FF11B" transform="translate(192,126)"/>
<path d="M0 0 C4.29 0 8.58 0 13 0 C13 1.32 13 2.64 13 4 C19.27 4 25.54 4 32 4 C30.68 4.33 29.36 4.66 28 5 C28 9.62 28 14.24 28 19 C16.78 19 5.56 19 -6 19 C-6 14.38 -6 9.76 -6 5 C-4.02 5 -2.04 5 0 5 C0 3.35 0 1.7 0 0 Z " fill="#9E02EE" transform="translate(49,189)"/>
<path d="M0 0 C9.9 0 19.8 0 30 0 C30 4.62 30 9.24 30 14 C25.71 14 21.42 14 17 14 C17 14.66 17 15.32 17 16 C6.44 16 -4.12 16 -15 16 C-15 14.68 -15 13.36 -15 12 C-10.05 12 -5.1 12 0 12 C0 8.04 0 4.08 0 0 Z " fill="#FAFAFA" transform="translate(62,141)"/>
<path d="M0 0 C15.51 0 31.02 0 47 0 C47.495 1.485 47.495 1.485 48 3 C46.35 3 44.7 3 43 3 C43.495 5.475 43.495 5.475 44 8 C37.93239358 10.1293725 32.42989588 10.26185911 26.03515625 10.1953125 C25.00184677 10.1924826 23.96853729 10.18965271 22.90391541 10.18673706 C19.62332278 10.17559647 16.34300927 10.15050304 13.0625 10.125 C10.83008208 10.1149623 8.59765986 10.10583783 6.36523438 10.09765625 C0.910062 10.07567721 -4.54494905 10.04226084 -10 10 C-9.34 9.67 -8.68 9.34 -8 9 C-8 6.69 -8 4.38 -8 2 C-5.36 2 -2.72 2 0 2 C0 1.34 0 0.68 0 0 Z " fill="#25D907" transform="translate(71,47)"/>
<path d="M0 0 C5.94 0 11.88 0 18 0 C18 2.97 18 5.94 18 9 C24.6 9 31.2 9 38 9 C38 12.3 38 15.6 38 19 C26.78 19 15.56 19 4 19 C4 14.71 4 10.42 4 6 C2.68 5.67 1.36 5.34 0 5 C0 3.35 0 1.7 0 0 Z " fill="#9F03EE" transform="translate(154,189)"/>
<path d="M0 0 C2.97 0 5.94 0 9 0 C9 1.98 9 3.96 9 6 C10.32 6 11.64 6 13 6 C13 10.95 13 15.9 13 21 C6.73 21.33 0.46 21.66 -6 22 C-6 26.62 -6 31.24 -6 36 C-10.95 36 -15.9 36 -21 36 C-21 35.67 -21 35.34 -21 35 C-16.38 35 -11.76 35 -7 35 C-7 30.71 -7 26.42 -7 22 C-8.7634375 22.0309375 -8.7634375 22.0309375 -10.5625 22.0625 C-14.47413467 22.06947261 -18.14497944 21.64250343 -22 21 C-22 18.69 -22 16.38 -22 14 C-14.74 13.67 -7.48 13.34 0 13 C0 8.71 0 4.42 0 0 Z " fill="#2BF703" transform="translate(213,163)"/>
<path d="M0 0 C10.56 0 21.12 0 32 0 C32 4.62 32 9.24 32 14 C21.44 14 10.88 14 0 14 C0 9.38 0 4.76 0 0 Z " fill="#FCFDFB" transform="translate(163,138)"/>
<path d="M0 0 C10.89 0 21.78 0 33 0 C33 4.29 33 8.58 33 13 C22.11 13 11.22 13 0 13 C0 8.71 0 4.42 0 0 Z " fill="#FAF6FB" transform="translate(173,185)"/>
<path d="M0 0 C1.98 0 3.96 0 6 0 C6 0.33 6 0.66 6 1 C4.35 1 2.7 1 1 1 C1 4.96 1 8.92 1 13 C10.57 13 20.14 13 30 13 C30 10.36 30 7.72 30 5 C36.6 5 43.2 5 50 5 C50 9.95 50 14.9 50 20 C39.77 20 29.54 20 19 20 C19 18.02 19 16.04 19 14 C12.73 14 6.46 14 0 14 C0 9.38 0 4.76 0 0 Z " fill="#3BE516" transform="translate(43,121)"/>
<path d="M0 0 C3.63 0 7.26 0 11 0 C12.61102988 4.93377899 13 8.77453999 13 14 C13.66 16.31 14.32 18.62 15 21 C28.86 21.495 28.86 21.495 43 22 C42.34 23.65 41.68 25.3 41 27 C38.875 27.8125 38.875 27.8125 37 28 C37.495 26.515 37.495 26.515 38 25 C27.11 25 16.22 25 5 25 C5 25.99 5 26.98 5 28 C4.01 27.67 3.02 27.34 2 27 C1.66048381 25.43883181 1.32867456 23.87598662 1 22.3125 C0.814375 21.44238281 0.62875 20.57226562 0.4375 19.67578125 C0.01027953 17.06287036 -0.07616201 14.64186962 0 12 C1.65 12 3.3 12 5 12 C5 9.69 5 7.38 5 5 C-1.27 5 -7.54 5 -14 5 C-14 4.34 -14 3.68 -14 3 C-9.38 3 -4.76 3 0 3 C0 2.01 0 1.02 0 0 Z " fill="#9D0FE1" transform="translate(96,159)"/>
<path d="M0 0 C15.18 0 30.36 0 46 0 C46 0.99 46 1.98 46 3 C50.95 3 55.9 3 61 3 C61 5.31 61 7.62 61 10 C61.99 10.33 62.98 10.66 64 11 C53.605 11.495 53.605 11.495 43 12 C43 11.01 43 10.02 43 9 C48.61 9 54.22 9 60 9 C60 7.35 60 5.7 60 4 C57.72844502 4.08702126 55.45769257 4.19519522 53.1875 4.3125 C51.29064453 4.39951172 51.29064453 4.39951172 49.35546875 4.48828125 C46.03791083 4.61589003 46.03791083 4.61589003 44.73242188 6.51367188 C41.99594502 8.8614271 39.45848322 8.33622633 35.92578125 8.29296875 C35.2419487 8.28872391 34.55811615 8.28447906 33.8535614 8.28010559 C31.67280439 8.26333353 29.49297691 8.22568657 27.3125 8.1875 C25.83269565 8.17245114 24.3528768 8.15876308 22.87304688 8.14648438 C19.24839664 8.11343569 15.62428906 8.06166446 12 8 C12.33 6.35 12.66 4.7 13 3 C8.38 3 3.76 3 -1 3 C-0.67 2.01 -0.34 1.02 0 0 Z " fill="#189A0A" transform="translate(153,47)"/>
<path d="M0 0 C8.58 0 17.16 0 26 0 C29 11 29 11 29 14 C20.42 14 11.84 14 3 14 C0 3 0 3 0 0 Z " fill="#F4FCF2" transform="translate(99,108)"/>
<path d="M0 0 C0.66 0 1.32 0 2 0 C2.33 2.97 2.66 5.94 3 9 C5.97 9 8.94 9 12 9 C12.83806616 11.93622464 13.67062444 14.87382067 14.5 17.8125 C14.73847656 18.64587891 14.97695312 19.47925781 15.22265625 20.33789062 C15.44824219 21.14033203 15.67382812 21.94277344 15.90625 22.76953125 C16.11572266 23.50792236 16.32519531 24.24631348 16.54101562 25.00708008 C17 27 17 27 17 30 C13.70265354 31.09911549 11.27041255 31.1139456 7.80078125 31.09765625 C6.59228516 31.09443359 5.38378906 31.09121094 4.13867188 31.08789062 C2.87603516 31.07951172 1.61339844 31.07113281 0.3125 31.0625 C-1.59885742 31.05573242 -1.59885742 31.05573242 -3.54882812 31.04882812 C-6.69926564 31.03702873 -9.84960949 31.02056597 -13 31 C-13 30.67 -13 30.34 -13 30 C-5.41 30 2.18 30 10 30 C10 25.05 10 20.1 10 15 C-0.89 15 -11.78 15 -23 15 C-23 13.02 -23 11.04 -23 9 C-15.74 9 -8.48 9 -1 9 C-0.67 6.03 -0.34 3.06 0 0 Z " fill="#B5F0A7" transform="translate(86,95)"/>
<path d="M0 0 C15.51 0 31.02 0 47 0 C47 0.99 47 1.98 47 3 C43.7 3.33 40.4 3.66 37 4 C37 5.32 37 6.64 37 8 C21.82 8 6.64 8 -9 8 C-9 6.35 -9 4.7 -9 3 C-4.545 2.505 -4.545 2.505 0 2 C0 1.34 0 0.68 0 0 Z " fill="#F1F6F0" transform="translate(61,57)"/>
<path d="M0 0 C0.66 0 1.32 0 2 0 C2 0.66 2 1.32 2 2 C14.21 2 26.42 2 39 2 C38.67 4.64 38.34 7.28 38 10 C33.63106263 10.84062776 29.5164802 11.11732956 25.0703125 11.09765625 C23.78125 11.09443359 22.4921875 11.09121094 21.1640625 11.08789062 C19.81770764 11.07953733 18.47135348 11.07107241 17.125 11.0625 C15.75520996 11.0574783 14.38541815 11.05291657 13.015625 11.04882812 C9.6770381 11.03707254 6.33854185 11.02063964 3 11 C2.49384702 9.73160474 1.99530901 8.46016898 1.5 7.1875 C1.2215625 6.47980469 0.943125 5.77210938 0.65625 5.04296875 C0 3 0 3 0 0 Z " fill="#F7FBF6" transform="translate(108,170)"/>
<path d="M0 0 C1.88041992 0.07250977 1.88041992 0.07250977 3.79882812 0.14648438 C5.10916016 0.20255859 6.41949219 0.25863281 7.76953125 0.31640625 C9.10479755 0.3696486 10.44008397 0.42238885 11.77539062 0.47460938 C15.04450269 0.60442971 18.31332044 0.73940161 21.58203125 0.87890625 C20.70703125 8.50390625 20.70703125 8.50390625 19.58203125 11.87890625 C10.67203125 11.87890625 1.76203125 11.87890625 -7.41796875 11.87890625 C-9.66796875 5.12890625 -9.66796875 5.12890625 -9.41796875 0.87890625 C-6.0020072 -0.2597476 -3.59334666 -0.14633538 0 0 Z " fill="#9C06E7" transform="translate(108.41796875,194.12109375)"/>
<path d="M0 0 C0.66 0 1.32 0 2 0 C2 1.65 2 3.3 2 5 C1.01 5 0.02 5 -1 5 C-0.98839844 5.61488281 -0.97679687 6.22976562 -0.96484375 6.86328125 C-0.95582031 7.67152344 -0.94679687 8.47976562 -0.9375 9.3125 C-0.92589844 10.11300781 -0.91429687 10.91351563 -0.90234375 11.73828125 C-1 14 -1 14 -2 17 C-2.20076251 19.1637737 -2.3632314 21.33124078 -2.5 23.5 C-2.71681305 26.93803558 -2.90942268 29.72826805 -4 33 C-6.64 33 -9.28 33 -12 33 C-11.68872484 31.41642541 -11.37592711 29.83315007 -11.0625 28.25 C-10.88847656 27.36828125 -10.71445313 26.4865625 -10.53515625 25.578125 C-10.07752809 23.37349297 -9.54609986 21.18439943 -9 19 C-19.89 19 -30.78 19 -42 19 C-42.33 17.68 -42.66 16.36 -43 15 C-30.79 15 -18.58 15 -6 15 C-5.67 13.35 -5.34 11.7 -5 10 C-4.20028505 8.20391888 -3.34455414 6.43183488 -2.4375 4.6875 C-1.98246094 3.80449219 -1.52742188 2.92148438 -1.05859375 2.01171875 C-0.53458984 1.01591797 -0.53458984 1.01591797 0 0 Z " fill="#4BEF22" transform="translate(160,137)"/>
<path d="M0 0 C7.92 0 15.84 0 24 0 C24 0.66 24 1.32 24 2 C17.73 2 11.46 2 5 2 C5 6.95 5 11.9 5 17 C7.97 17 10.94 17 14 17 C14 18.98 14 20.96 14 23 C15.65 23 17.3 23 19 23 C19 23.66 19 24.32 19 25 C18.01 25 17.02 25 16 25 C16 26.65 16 28.3 16 30 C16.99 30 17.98 30 19 30 C19 31.32 19 32.64 19 34 C21.31 34 23.62 34 26 34 C26 34.99 26 35.98 26 37 C19.07 37 12.14 37 5 37 C5 31.72 5 26.44 5 21 C5.99 21 6.98 21 8 21 C8 20.01 8 19.02 8 18 C6.68 18 5.36 18 4 18 C4 12.39 4 6.78 4 1 C2.68 0.67 1.36 0.34 0 0 Z " fill="#930AD8" transform="translate(36,150)"/>
<path d="M0 0 C4.62 0 9.24 0 14 0 C14 1.65 14 3.3 14 5 C16.97 5 19.94 5 23 5 C22.01 5.495 22.01 5.495 21 6 C21 6.99 21 7.98 21 9 C17.37 9 13.74 9 10 9 C10 12.96 10 16.92 10 21 C5.38 21 0.76 21 -4 21 C-4 18.69 -4 16.38 -4 14 C-2.68 14 -1.36 14 0 14 C0 9.38 0 4.76 0 0 Z " fill="#A305F2" transform="translate(46,82)"/>
<path d="M0 0 C7.92 0 15.84 0 24 0 C21.125 11.875 21.125 11.875 20 13 C18.36527118 13.08700342 16.72685945 13.10701063 15.08984375 13.09765625 C14.10048828 13.09443359 13.11113281 13.09121094 12.09179688 13.08789062 C11.05087891 13.07951172 10.00996094 13.07113281 8.9375 13.0625 C7.89271484 13.05798828 6.84792969 13.05347656 5.77148438 13.04882812 C3.1809334 13.03699913 0.59049441 13.02051689 -2 13 C-1.47694567 8.59139921 -0.87251184 4.36255922 0 0 Z " fill="#FBFCFB" transform="translate(141,109)"/>
<path d="M0 0 C1.32 0 2.64 0 4 0 C4 3.3 4 6.6 4 10 C5.299375 9.979375 6.59875 9.95875 7.9375 9.9375 C9.29165633 9.91600546 10.64756083 9.92851801 12 10 C13 11 13 11 13.0625 14.0625 C13.041875 15.031875 13.02125 16.00125 13 17 C11.68 17 10.36 17 9 17 C9 18.32 9 19.64 9 21 C12.63 21 16.26 21 20 21 C20 22.98 20 24.96 20 27 C14.06 27 8.12 27 2 27 C1.67 27.99 1.34 28.98 1 30 C1 28.68 1 27.36 1 26 C0.34 25.67 -0.32 25.34 -1 25 C-3.67968229 16.96095312 -1.55895801 8.10101392 0 0 Z " fill="#9E0CE5" transform="translate(159,142)"/>
<path d="M0 0 C5.28 0 10.56 0 16 0 C16 5.28 16 10.56 16 16 C15.01 16 14.02 16 13 16 C12.67 20.29 12.34 24.58 12 29 C11.67 29 11.34 29 11 29 C11 26.69 11 24.38 11 22 C8.69 22 6.38 22 4 22 C4 21.34 4 20.68 4 20 C6.64 20 9.28 20 12 20 C12 19.01 12 18.02 12 17 C9.36 17 6.72 17 4 17 C4 15.02 4 13.04 4 11 C2.68 11 1.36 11 0 11 C0 7.37 0 3.74 0 0 Z " fill="#28D607" transform="translate(192,126)"/>
<path d="M0 0 C2.62697064 -0.22137393 5.00893964 -0.28162025 7.625 -0.1875 C8.33140625 -0.17396484 9.0378125 -0.16042969 9.765625 -0.14648438 C11.51074128 -0.1111104 13.25546608 -0.05730221 15 0 C15 1.65 15 3.3 15 5 C9.39 5 3.78 5 -2 5 C-2 5.99 -2 6.98 -2 8 C-17.18 8 -32.36 8 -48 8 C-48 6.68 -48 5.36 -48 4 C-47.42814972 3.99413376 -46.85629944 3.98826752 -46.26712036 3.98222351 C-40.32993053 3.91842516 -34.39328962 3.83404189 -28.45654297 3.73754883 C-26.23916854 3.70423784 -24.02170806 3.67622537 -21.80419922 3.65356445 C-18.62169623 3.62013181 -15.43998635 3.56782218 -12.2578125 3.51171875 C-11.26194122 3.50532883 -10.26606995 3.4989389 -9.24002075 3.49235535 C-8.31921722 3.47256119 -7.3984137 3.45276703 -6.44970703 3.43237305 C-5.6369632 3.42126999 -4.82421936 3.41016693 -3.98684692 3.39872742 C-1.59816831 3.16278126 -1.59816831 3.16278126 0 0 Z " fill="#52DB39" transform="translate(198,51)"/>
<path d="M0 0 C3.96 0 7.92 0 12 0 C12 2.64 12 5.28 12 8 C17.61 8 23.22 8 29 8 C29 8.33 29 8.66 29 9 C24.71 9 20.42 9 16 9 C15.67 11.31 15.34 13.62 15 16 C15.66 16.33 16.32 16.66 17 17 C16.34 17 15.68 17 15 17 C14.67 19.31 14.34 21.62 14 24 C12 21 12 21 11 13 C2.42 13 -6.16 13 -15 13 C-15.33 12.01 -15.66 11.02 -16 10 C-10.06 10 -4.12 10 2 10 C1.34 8.02 0.68 6.04 0 4 C0 2.68 0 1.36 0 0 Z " fill="#38F10B" transform="translate(114,95)"/>
<path d="M0 0 C15.84 0 31.68 0 48 0 C48 1.65 48 3.3 48 5 C31.83 5 15.66 5 -1 5 C-0.67 3.35 -0.34 1.7 0 0 Z " fill="#FBFCFB" transform="translate(145,61)"/>
<path d="M0 0 C4.95 0 9.9 0 15 0 C15 4.62 15 9.24 15 14 C9.06 13.01 9.06 13.01 3 12 C2.67 10.68 2.34 9.36 2 8 C-3.61 7.67 -9.22 7.34 -15 7 C-15 5.68 -15 4.36 -15 3 C-10.05 3 -5.1 3 0 3 C0 2.01 0 1.02 0 0 Z " fill="#2EF604" transform="translate(192,80)"/>
<path d="M0 0 C6.27 0 12.54 0 19 0 C19 1.98 19 3.96 19 6 C14.71 6 10.42 6 6 6 C6 8.97 6 11.94 6 15 C3.69 15 1.38 15 -1 15 C-1 13.68 -1 12.36 -1 11 C-9.58 11 -18.16 11 -27 11 C-27 10.34 -27 9.68 -27 9 C-18.09 9 -9.18 9 0 9 C0 6.03 0 3.06 0 0 Z " fill="#56F331" transform="translate(82,164)"/>
<path d="M0 0 C13.53 0 27.06 0 41 0 C41 0.33 41 0.66 41 1 C34.73 1 28.46 1 22 1 C22 4.3 22 7.6 22 11 C17.38 11 12.76 11 8 11 C8 15.62 8 20.24 8 25 C6.68 25 5.36 25 4 25 C4 27.31 4 29.62 4 32 C8.62 32 13.24 32 18 32 C18 32.33 18 32.66 18 33 C13.05 33 8.1 33 3 33 C3 30.03 3 27.06 3 24 C4.32 24 5.64 24 7 24 C7 19.38 7 14.76 7 10 C8.65 10 10.3 10 12 10 C12 8.02 12 6.04 12 4 C8.04 4 4.08 4 0 4 C0 2.68 0 1.36 0 0 Z " fill="#7E05B9" transform="translate(38,71)"/>
<path d="M0 0 C2.31 0 4.62 0 7 0 C7 1.65 7 3.3 7 5 C5.02 5.33 3.04 5.66 1 6 C0.67 7.32 0.34 8.64 0 10 C2.475 10.495 2.475 10.495 5 11 C4.34 14.3 3.68 17.6 3 21 C-2.94 20.67 -8.88 20.34 -15 20 C-14.67 17.69 -14.34 15.38 -14 13 C-10.37 13 -6.74 13 -3 13 C-2.690625 11.22625 -2.38125 9.4525 -2.0625 7.625 C-1.125 2.25 -1.125 2.25 0 0 Z " fill="#9E0CE2" transform="translate(141,83)"/>
<path d="M0 0 C4.95 0 9.9 0 15 0 C15.66 4.62 16.32 9.24 17 14 C9.08 14.495 9.08 14.495 1 15 C1 14.34 1 13.68 1 13 C2.98 13 4.96 13 7 13 C6.67 11.02 6.34 9.04 6 7 C4.68 7 3.36 7 2 7 C0.5393715 4.35261084 0 3.10551666 0 0 Z " fill="#34EC0B" transform="translate(112,80)"/>
<path d="M0 0 C0.66 0 1.32 0 2 0 C2.33 3.3 2.66 6.6 3 10 C3.99 10 4.98 10 6 10 C6 11.32 6 12.64 6 14 C-3.57 14.33 -13.14 14.66 -23 15 C-23 13.02 -23 11.04 -23 9 C-15.74 9 -8.48 9 -1 9 C-0.67 6.03 -0.34 3.06 0 0 Z " fill="#32F802" transform="translate(86,95)"/>
<path d="M0 0 C15.51 0 31.02 0 47 0 C47 0.99 47 1.98 47 3 C39.74321315 3.7696683 32.59611209 4.13923121 25.30078125 4.09765625 C23.85918892 4.09553383 23.85918892 4.09553383 22.38847351 4.09336853 C19.36311534 4.08783675 16.33783525 4.07529773 13.3125 4.0625 C11.24283962 4.05747616 9.17317807 4.05291481 7.10351562 4.04882812 C2.068981 4.03788981 -2.96549633 4.02067362 -8 4 C-8.33 5.32 -8.66 6.64 -9 8 C-9 6.35 -9 4.7 -9 3 C-4.545 2.505 -4.545 2.505 0 2 C0 1.34 0 0.68 0 0 Z " fill="#BCD6B6" transform="translate(61,57)"/>
<path d="M0 0 C0.33 0 0.66 0 1 0 C1 3.96 1 7.92 1 12 C-3.95 12 -8.9 12 -14 12 C-14 13.65 -14 15.3 -14 17 C-8.72 17 -3.44 17 2 17 C2 17.33 2 17.66 2 18 C-1.96 18 -5.92 18 -10 18 C-10 20.97 -10 23.94 -10 27 C-13.3 26.67 -16.6 26.34 -20 26 C-20 21.05 -20 16.1 -20 11 C-13.73 11 -7.46 11 -1 11 C-0.67 7.37 -0.34 3.74 0 0 Z " fill="#AB12F3" transform="translate(61,141)"/>
<path d="M0 0 C0.66 0 1.32 0 2 0 C2 0.66 2 1.32 2 2 C14.21 2 26.42 2 39 2 C39 2.66 39 3.32 39 4 C27.12 4 15.24 4 3 4 C3.33 5.32 3.66 6.64 4 8 C15.22 8.33 26.44 8.66 38 9 C38 9.33 38 9.66 38 10 C33.63106263 10.84062776 29.5164802 11.11732956 25.0703125 11.09765625 C23.78125 11.09443359 22.4921875 11.09121094 21.1640625 11.08789062 C19.81770764 11.07953733 18.47135348 11.07107241 17.125 11.0625 C15.75520996 11.0574783 14.38541815 11.05291657 13.015625 11.04882812 C9.6770381 11.03707254 6.33854185 11.02063964 3 11 C2.49384702 9.73160474 1.99530901 8.46016898 1.5 7.1875 C1.2215625 6.47980469 0.943125 5.77210938 0.65625 5.04296875 C0 3 0 3 0 0 Z " fill="#7CD865" transform="translate(108,170)"/>
<path d="M0 0 C0.99 0 1.98 0 3 0 C3 4.29 3 8.58 3 13 C-1.29 13 -5.58 13 -10 13 C-10 12.34 -10 11.68 -10 11 C-15.94 11 -21.88 11 -28 11 C-28 10.34 -28 9.68 -28 9 C-23.05 9 -18.1 9 -13 9 C-13 8.34 -13 7.68 -13 7 C-8.71 7 -4.42 7 0 7 C0 4.69 0 2.38 0 0 Z " fill="#48F71E" transform="translate(92,148)"/>
<path d="M0 0 C2.64 0 5.28 0 8 0 C10.4021604 4.8043208 10.61122229 9.73103895 11 15 C8.03 15 5.06 15 2 15 C2 12.03 2 9.06 2 6 C1.34 6 0.68 6 0 6 C0 4.02 0 2.04 0 0 Z " fill="#A60DF0" transform="translate(94,135)"/>
<path d="M0 0 C10.56 0 21.12 0 32 0 C32.495 0.99 32.495 0.99 33 2 C29.27459338 4.48360441 27.36937027 4.2315867 22.92578125 4.1953125 C22.2419487 4.1924826 21.55811615 4.18965271 20.8535614 4.18673706 C18.67302835 4.17555684 16.49290855 4.15045691 14.3125 4.125 C12.83268823 4.11496738 11.35287001 4.10584202 9.87304688 4.09765625 C6.248564 4.07562481 2.62432234 4.04111002 -1 4 C-0.67 2.68 -0.34 1.36 0 0 Z " fill="#25F303" transform="translate(166,51)"/>
<path d="M0 0 C7.92 0 15.84 0 24 0 C24 1.65 24 3.3 24 5 C15.75 5 7.5 5 -1 5 C-0.67 3.35 -0.34 1.7 0 0 Z " fill="#37F20E" transform="translate(149,83)"/>
<path d="M0 0 C0.33 0 0.66 0 1 0 C1.02699725 2.27076842 1.04639453 4.54162821 1.0625 6.8125 C1.07410156 8.07707031 1.08570313 9.34164062 1.09765625 10.64453125 C1 14 1 14 0 17 C-1.98 17 -3.96 17 -6 17 C-6 16.34 -6 15.68 -6 15 C-12.27 15 -18.54 15 -25 15 C-25 14.01 -25 13.02 -25 12 C-17.74 12 -10.48 12 -3 12 C-2.690625 10.205625 -2.38125 8.41125 -2.0625 6.5625 C-1.125 1.125 -1.125 1.125 0 0 Z " fill="#5EEB39" transform="translate(171,94)"/>
<path d="M0 0 C4.29 0 8.58 0 13 0 C13 0.66 13 1.32 13 2 C13.99 2 14.98 2 16 2 C16 2.99 16 3.98 16 5 C14.35 5 12.7 5 11 5 C11 5.66 11 6.32 11 7 C9.02 7 7.04 7 5 7 C4.67 8.98 4.34 10.96 4 13 C3.01 12.67 2.02 12.34 1 12 C1 10.35 1 8.7 1 7 C0.34 7 -0.32 7 -1 7 C-0.67 4.69 -0.34 2.38 0 0 Z " fill="#A215E4" transform="translate(130,104)"/>
<path d="M0 0 C1.32 0 2.64 0 4 0 C4 0.99 4 1.98 4 3 C14.23 3 24.46 3 35 3 C35 3.66 35 4.32 35 5 C16.685 4.505 16.685 4.505 -2 4 C-1.67 6.64 -1.34 9.28 -1 12 C-3.64 12 -6.28 12 -9 12 C-9 9.36 -9 6.72 -9 4 C-4.545 3.505 -4.545 3.505 0 3 C0 2.01 0 1.02 0 0 Z " fill="#A70EF3" transform="translate(103,122)"/>
<path d="M0 0 C14.85 0 29.7 0 45 0 C45 0.99 45 1.98 45 3 C29.96327361 3.10881621 15.00217212 3.09819822 0 2 C0 1.34 0 0.68 0 0 Z " fill="#E7FCE4" transform="translate(151,56)"/>
<path d="M0 0 C1.98 0 3.96 0 6 0 C5.34 3.63 4.68 7.26 4 11 C11.26 10.67 18.52 10.34 26 10 C26.33 9.01 26.66 8.02 27 7 C30.3 7 33.6 7 37 7 C37 7.66 37 8.32 37 9 C36.01 9 35.02 9 34 9 C34 9.99 34 10.98 34 12 C31.03 12 28.06 12 25 12 C24.67 12.66 24.34 13.32 24 14 C24 13.34 24 12.68 24 12 C17.07 12 10.14 12 3 12 C2.67 9.69 2.34 7.38 2 5 C1.34 5.66 0.68 6.32 0 7 C-0.99 6.67 -1.98 6.34 -3 6 C-2.34 6 -1.68 6 -1 6 C-0.67 4.02 -0.34 2.04 0 0 Z " fill="#70E056" transform="translate(135,111)"/>
<path d="M0 0 C6.27 0 12.54 0 19 0 C19 0.33 19 0.66 19 1 C13.06 1 7.12 1 1 1 C1 2.65 1 4.3 1 6 C11.89 6 22.78 6 34 6 C34 6.33 34 6.66 34 7 C28.06 7.33 22.12 7.66 16 8 C16 12.62 16 17.24 16 22 C11.05 22 6.1 22 1 22 C1 21.67 1 21.34 1 21 C5.62 21 10.24 21 15 21 C15 16.71 15 12.42 15 8 C13.2365625 8.0309375 13.2365625 8.0309375 11.4375 8.0625 C7.52586533 8.06947261 3.85502056 7.64250343 0 7 C0 4.69 0 2.38 0 0 Z " fill="#458C3A" transform="translate(191,177)"/>
<path d="M0 0 C2.64 0 5.28 0 8 0 C8 0.66 8 1.32 8 2 C5.69 2 3.38 2 1 2 C1 6.62 1 11.24 1 16 C-0.32 16 -1.64 16 -3 16 C-3 15.01 -3 14.02 -3 13 C-2.01 13 -1.02 13 0 13 C0 12.34 0 11.68 0 11 C-2.97 11 -5.94 11 -9 11 C-8.67 8.69 -8.34 6.38 -8 4 C-5.69 4 -3.38 4 -1 4 C-0.67 2.68 -0.34 1.36 0 0 Z " fill="#B532E6" transform="translate(172,107)"/>
<path d="M0 0 C4.29 0 8.58 0 13 0 C13 0.33 13 0.66 13 1 C11.35 1 9.7 1 8 1 C8.15597656 1.60328125 8.31195313 2.2065625 8.47265625 2.828125 C8.76462891 4.02695313 8.76462891 4.02695313 9.0625 5.25 C9.25972656 6.03890625 9.45695312 6.8278125 9.66015625 7.640625 C10.01497267 10.10394822 9.76877544 11.65604132 9 14 C8.34 14 7.68 14 7 14 C7 12.35 7 10.7 7 9 C4.69 9 2.38 9 0 9 C0 6.03 0 3.06 0 0 Z " fill="#0F0F12" transform="translate(88,170)"/>
<path d="M0 0 C2.31 0 4.62 0 7 0 C7.66 1.32 8.32 2.64 9 4 C9.66 4 10.32 4 11 4 C11 3.01 11 2.02 11 1 C13.97 1 16.94 1 20 1 C20.33 2.32 20.66 3.64 21 5 C13.74 5 6.48 5 -1 5 C-0.67 3.35 -0.34 1.7 0 0 Z " fill="#BD47E9" transform="translate(97,151)"/>
<path d="M0 0 C2.97 0 5.94 0 9 0 C9 1.98 9 3.96 9 6 C10.32 6 11.64 6 13 6 C13 10.95 13 15.9 13 21 C12.67 21 12.34 21 12 21 C12 16.38 12 11.76 12 7 C8.04 7 4.08 7 0 7 C0 4.69 0 2.38 0 0 Z " fill="#1C7E0E" transform="translate(213,163)"/>
<path d="M0 0 C0.66 0 1.32 0 2 0 C2.33 2.64 2.66 5.28 3 8 C-0.30288336 10.20192224 -1.27462727 10.23959968 -5.10546875 10.1953125 C-6.08837891 10.18886719 -7.07128906 10.18242188 -8.08398438 10.17578125 C-9.10814453 10.15902344 -10.13230469 10.14226562 -11.1875 10.125 C-12.22326172 10.11597656 -13.25902344 10.10695313 -14.32617188 10.09765625 C-16.88434685 10.0740786 -19.44205748 10.0411703 -22 10 C-22 11.32 -22 12.64 -22 14 C-21.34 13.67 -20.68 13.34 -20 13 C-18.18658158 12.91528636 -16.37005839 12.89278917 -14.5546875 12.90234375 C-13.47832031 12.90556641 -12.40195313 12.90878906 -11.29296875 12.91210938 C-10.16503906 12.92048828 -9.03710938 12.92886719 -7.875 12.9375 C-6.73933594 12.94201172 -5.60367188 12.94652344 -4.43359375 12.95117188 C-1.62234362 12.96298385 1.1888023 12.97945493 4 13 C4 13.33 4 13.66 4 14 C-9.365 14.495 -9.365 14.495 -23 15 C-23 13.02 -23 11.04 -23 9 C-15.74 9 -8.48 9 -1 9 C-0.67 6.03 -0.34 3.06 0 0 Z " fill="#3AEC18" transform="translate(86,95)"/>
<path d="M0 0 C3.63 0.33 7.26 0.66 11 1 C10.125 6.875 10.125 6.875 9 8 C7.14712498 8.07226502 5.29166122 8.0838122 3.4375 8.0625 C2.42558594 8.05347656 1.41367188 8.04445312 0.37109375 8.03515625 C-0.41136719 8.02355469 -1.19382813 8.01195312 -2 8 C-1.34 5.36 -0.68 2.72 0 0 Z " fill="#970CE0" transform="translate(132,187)"/>
<path d="M0 0 C1.8572168 0.00676758 1.8572168 0.00676758 3.75195312 0.01367188 C6.77218785 0.02533301 9.79231677 0.04169764 12.8125 0.0625 C12.4825 1.3825 12.1525 2.7025 11.8125 4.0625 C10.4925 4.3925 9.1725 4.7225 7.8125 5.0625 C8.1425 4.0725 8.4725 3.0825 8.8125 2.0625 C-2.0775 2.0625 -12.9675 2.0625 -24.1875 2.0625 C-24.5175 2.7225 -24.8475 3.3825 -25.1875 4.0625 C-25.1875 3.0725 -25.1875 2.0825 -25.1875 1.0625 C-16.77257941 0.10716472 -8.46315022 -0.05931049 0 0 Z " fill="#AB13F2" transform="translate(125.1875,181.9375)"/>
<path d="M0 0 C0.99 0.33 1.98 0.66 3 1 C3.94921875 3.3984375 3.94921875 3.3984375 4.6875 6.375 C4.93886719 7.35210937 5.19023438 8.32921875 5.44921875 9.3359375 C6 12 6 12 6 15 C4.02 15.33 2.04 15.66 0 16 C0 10.72 0 5.44 0 0 Z " fill="#4DEC25" transform="translate(97,110)"/>
<path d="M0 0 C2.64 0 5.28 0 8 0 C7.46515599 5.34844008 5.53309233 9.35796103 3 14 C2.34 13.67 1.68 13.34 1 13 C0.5859375 10.05859375 0.5859375 10.05859375 0.375 6.4375 C0.30023438 5.23996094 0.22546875 4.04242188 0.1484375 2.80859375 C0.09945312 1.88175781 0.05046875 0.95492187 0 0 Z " fill="#43F11E" transform="translate(130,127)"/>
<path d="M0 0 C0.33 1.32 0.66 2.64 1 4 C19.315 4.495 19.315 4.495 38 5 C38 6.98 38 8.96 38 11 C37.01 11 36.02 11 35 11 C35 9.35 35 7.7 35 6 C27.08 6 19.16 6 11 6 C10.67 6.66 10.34 7.32 10 8 C10 7.34 10 6.68 10 6 C6.37 6 2.74 6 -1 6 C-0.67 4.02 -0.34 2.04 0 0 Z " fill="#8B988E" transform="translate(138,77)"/>
<path d="M0 0 C0.33 0 0.66 0 1 0 C1.02712066 1.43739513 1.04645067 2.87493863 1.0625 4.3125 C1.07410156 5.11300781 1.08570313 5.91351563 1.09765625 6.73828125 C1 9 1 9 0 12 C-2.64 12 -5.28 12 -8 12 C-7.67 9.69 -7.34 7.38 -7 5 C-4.69 5 -2.38 5 0 5 C0 3.35 0 1.7 0 0 Z " fill="#2EBE17" transform="translate(156,158)"/>
<path d="M0 0 C0.66 0.33 1.32 0.66 2 1 C2 3.31 2 5.62 2 8 C8.93 8 15.86 8 23 8 C23 8.66 23 9.32 23 10 C9.14 9.505 9.14 9.505 -5 9 C-3.35 6.03 -1.7 3.06 0 0 Z " fill="#33E40A" transform="translate(136,115)"/>
<path d="M0 0 C1.32 0 2.64 0 4 0 C4 0.99 4 1.98 4 3 C14.23 3 24.46 3 35 3 C35 3.66 35 4.32 35 5 C22.46 4.67 9.92 4.34 -3 4 C-2.01 3.67 -1.02 3.34 0 3 C0 2.01 0 1.02 0 0 Z " fill="#BA96C0" transform="translate(103,122)"/>
<path d="M0 0 C0.82242188 0.144375 1.64484375 0.28875 2.4921875 0.4375 C8.74371755 1.47701539 14.63841422 2.21191154 20.9765625 1.875 C23 2 23 2 26 4 C17.42 4 8.84 4 0 4 C0 2.68 0 1.36 0 0 Z " fill="#22F801" transform="translate(81,67)"/>
<path d="M0 0 C0.33 0 0.66 0 1 0 C1 2.64 1 5.28 1 8 C3.64 8 6.28 8 9 8 C9 8.33 9 8.66 9 9 C6.36 9 3.72 9 1 9 C1 10.98 1 12.96 1 15 C1.66 15 2.32 15 3 15 C3 16.98 3 18.96 3 21 C1.68 21.33 0.36 21.66 -1 22 C-0.67 14.74 -0.34 7.48 0 0 Z " fill="#775D92" transform="translate(93,126)"/>
<path d="M0 0 C0.66 0 1.32 0 2 0 C2 1.65 2 3.3 2 5 C1.01 5 0.02 5 -1 5 C-0.97679687 5.61488281 -0.95359375 6.22976562 -0.9296875 6.86328125 C-0.91164062 7.67152344 -0.89359375 8.47976562 -0.875 9.3125 C-0.85179687 10.11300781 -0.82859375 10.91351563 -0.8046875 11.73828125 C-1 14 -1 14 -3 17 C-3.33 16.01 -3.66 15.02 -4 14 C-4.66 14 -5.32 14 -6 14 C-4.50829734 9.0276578 -2.39542583 4.58154261 0 0 Z " fill="#58D03C" transform="translate(160,137)"/>
<path d="M0 0 C4.95 0 9.9 0 15 0 C15 0.33 15 0.66 15 1 C10.71 1 6.42 1 2 1 C1.67 3.31 1.34 5.62 1 8 C1.66 8.33 2.32 8.66 3 9 C2.34 9 1.68 9 1 9 C0.67 11.31 0.34 13.62 0 16 C-2.12508244 12.81237635 -2.5020163 10.73487777 -3 7 C-2.01 7 -1.02 7 0 7 C0 4.69 0 2.38 0 0 Z " fill="#43743B" transform="translate(128,103)"/>
<path d="M0 0 C0 2.31 0 4.62 0 7 C-2.64 7 -5.28 7 -8 7 C-7.67 5.02 -7.34 3.04 -7 1 C-1.125 0 -1.125 0 0 0 Z " fill="#A502F6" transform="translate(172,110)"/>
<path d="M0 0 C2.31 0 4.62 0 7 0 C7.33 1.98 7.66 3.96 8 6 C5.69 6.33 3.38 6.66 1 7 C0.67 4.69 0.34 2.38 0 0 Z " fill="#38DF1D" transform="translate(110,73)"/>
<path d="M0 0 C3.3 0 6.6 0 10 0 C10 0.66 10 1.32 10 2 C9.01 2 8.02 2 7 2 C7 2.99 7 3.98 7 5 C4.69 5 2.38 5 0 5 C0 3.35 0 1.7 0 0 Z " fill="#2D1539" transform="translate(162,118)"/>
<path d="M0 0 C5.94 0 11.88 0 18 0 C18.33 0.99 18.66 1.98 19 3 C13.06 3 7.12 3 1 3 C0.67 2.01 0.34 1.02 0 0 Z " fill="#36BB16" transform="translate(98,105)"/>
<path d="M0 0 C6.27 0 12.54 0 19 0 C19 0.33 19 0.66 19 1 C13.06 1 7.12 1 1 1 C1.7018576 7.40371521 1.7018576 7.40371521 3 11 C2.01 12.32 1.02 13.64 0 15 C0 10.05 0 5.1 0 0 Z " fill="#4AD72D" transform="translate(82,164)"/>
<path d="M0 0 C1.22589844 0.29197266 1.22589844 0.29197266 2.4765625 0.58984375 C3.41628906 0.82380859 3.41628906 0.82380859 4.375 1.0625 C4.705 0.4025 5.035 -0.2575 5.375 -0.9375 C5.705 0.3825 6.035 1.7025 6.375 3.0625 C2.085 3.0625 -2.205 3.0625 -6.625 3.0625 C-6.625 2.0725 -6.625 1.0825 -6.625 0.0625 C-3.99249612 -1.25375194 -2.82320944 -0.68563658 0 0 Z " fill="#26E508" transform="translate(94.625,166.9375)"/>
<path d="M0 0 C2.31 0 4.62 0 7 0 C7.66 1.32 8.32 2.64 9 4 C5.7 4 2.4 4 -1 4 C-0.67 2.68 -0.34 1.36 0 0 Z " fill="#9D09DD" transform="translate(97,151)"/>
<path d="M0 0 C0.66 0 1.32 0 2 0 C2.33 2.64 2.66 5.28 3 8 C-0.20380017 10.13586678 -1.01939967 10.23132175 -4.6875 10.125 C-5.89986328 10.09792969 -5.89986328 10.09792969 -7.13671875 10.0703125 C-8.05904297 10.03550781 -8.05904297 10.03550781 -9 10 C-9 9.67 -9 9.34 -9 9 C-6.36 9 -3.72 9 -1 9 C-0.67 6.03 -0.34 3.06 0 0 Z " fill="#59F034" transform="translate(86,95)"/>
<path d="M0 0 C1.65 0 3.3 0 5 0 C5.33 1.98 5.66 3.96 6 6 C4.02 6 2.04 6 0 6 C0 4.02 0 2.04 0 0 Z " fill="#AC2BE0" transform="translate(93,104)"/>
<path d="M0 0 C0 3.10551666 -0.5393715 4.35261084 -2 7 C-2 6.34 -2 5.68 -2 5 C-4.97 5 -7.94 5 -11 5 C-11 4.34 -11 3.68 -11 3 C-7.37 2.01 -3.74 1.02 0 0 Z " fill="#8B1FC3" transform="translate(141,69)"/>
<path d="M0 0 C0.99 0 1.98 0 3 0 C3 3.3 3 6.6 3 10 C5.64 10 8.28 10 11 10 C11 10.33 11 10.66 11 11 C8.03 11 5.06 11 2 11 C2 9.68 2 8.36 2 7 C1.34 7 0.68 7 0 7 C0 4.69 0 2.38 0 0 Z " fill="#C656F0" transform="translate(160,142)"/>
<path d="M0 0 C3.63 0 7.26 0 11 0 C11 0.33 11 0.66 11 1 C9.3603125 1.37125 9.3603125 1.37125 7.6875 1.75 C3.84718899 3.05180034 3.07513001 3.72347893 1 7 C0.34 7 -0.32 7 -1 7 C-0.67 4.69 -0.34 2.38 0 0 Z " fill="#9B06E4" transform="translate(130,104)"/>
<path d="M0 0 C2.64 0 5.28 0 8 0 C8 1.32 8 2.64 8 4 C5.36 4 2.72 4 0 4 C0 2.68 0 1.36 0 0 Z " fill="#28F806" transform="translate(213,164)"/>
<path d="M0 0 C2.31 0 4.62 0 7 0 C7 1.32 7 2.64 7 4 C4.69 4 2.38 4 0 4 C0 2.68 0 1.36 0 0 Z " fill="#3BE419" transform="translate(55,180)"/>
<path d="M0 0 C4.29 0 8.58 0 13 0 C13 0.33 13 0.66 13 1 C10.03 1 7.06 1 4 1 C4 2.65 4 4.3 4 6 C3.67 5.34 3.34 4.68 3 4 C2.01 4 1.02 4 0 4 C0 2.68 0 1.36 0 0 Z " fill="#56F12F" transform="translate(79,155)"/>
<path d="M0 0 C0.33 0 0.66 0 1 0 C1 4.29 1 8.58 1 13 C0.01 13 -0.98 13 -2 13 C-1.34 8.71 -0.68 4.42 0 0 Z " fill="#24FD03" transform="translate(206,127)"/>
<path d="M0 0 C0.33 0 0.66 0 1 0 C1 2.31 1 4.62 1 7 C1.66 7 2.32 7 3 7 C3 7.99 3 8.98 3 10 C2.01 10 1.02 10 0 10 C-0.33 11.98 -0.66 13.96 -1 16 C-2.26823485 12.34606463 -1.75715321 9.50929974 -1.0625 5.75 C-0.86785156 4.67234375 -0.67320312 3.5946875 -0.47265625 2.484375 C-0.31667969 1.66453125 -0.16070312 0.8446875 0 0 Z " fill="#8232AB" transform="translate(159,142)"/>
<path d="M0 0 C2.64 0 5.28 0 8 0 C8 0.99 8 1.98 8 3 C5.36 3 2.72 3 0 3 C0 2.01 0 1.02 0 0 Z " fill="#20F906" transform="translate(196,143)"/>
<path d="M0 0 C1.32 0.33 2.64 0.66 4 1 C4 1.99 4 2.98 4 4 C2.35 4 0.7 4 -1 4 C-1 4.66 -1 5.32 -1 6 C-2.98 6 -4.96 6 -7 6 C-7 5.67 -7 5.34 -7 5 C-5.35 5 -3.7 5 -2 5 C-2 4.01 -2 3.02 -2 2 C-1.34 2 -0.68 2 0 2 C0 1.34 0 0.68 0 0 Z " fill="#AC2DDE" transform="translate(142,105)"/>
<path d="M0 0 C0.33 0 0.66 0 1 0 C1 2.97 1 5.94 1 9 C-0.32 9 -1.64 9 -3 9 C-2.30058404 5.85262818 -1.23921302 2.97411124 0 0 Z " fill="#27FB03" transform="translate(86,170)"/>
<path d="M0 0 C0.66 0 1.32 0 2 0 C3.60725635 3.21451269 3.05748185 6.43612536 3 10 C1.11608215 6.73454239 0.50712033 3.71888239 0 0 Z " fill="#55B65A" transform="translate(108,170)"/>
</svg>
